<svg xmlns="http://www.w3.org/2000/svg" width="112" height="112" viewBox="0 0 112 112">
    <g fill="none" fill-rule="nonzero">
        <circle cx="56" cy="56" r="56" fill="#0047BB"/>
        <path fill="#FFF" d="M89.6 29.837c-12.25 0-24.15 3.413-33.6 9.538-9.45-6.125-21.35-9.538-33.513-9.538H22.4a2.726 2.726 0 0 0-2.712 2.713V72.8a2.726 2.726 0 0 0 2.712 2.713 2.726 2.726 0 0 0 2.713-2.713V35.263c9.45.437 18.55 3.062 26.162 7.525-1.225 1.05-2.45 2.1-3.587 3.237-5.863 5.863-9.1 12.513-9.1 18.725 0 9.625 7.787 17.412 17.412 17.412s17.412-7.787 17.412-17.412c0-6.212-3.237-12.862-9.1-18.725-1.137-1.137-2.362-2.188-3.587-3.237 7.613-4.463 16.712-7.088 26.163-7.525V72.8a2.726 2.726 0 0 0 2.712 2.713 2.726 2.726 0 0 0 2.713-2.713V32.55c-.088-1.487-1.313-2.712-2.713-2.712M68.075 64.75c0 6.65-5.425 12.075-12.075 12.075-6.65 0-12.075-5.425-12.075-12.075 0-4.725 2.713-10.063 7.525-14.962A39.74 39.74 0 0 1 56 45.85a39.74 39.74 0 0 1 4.55 3.938c4.813 4.9 7.525 10.15 7.525 14.962"/>
    </g>
</svg>
